<?xml version="1.0" standalone="no"?>
<!DOCTYPE svg PUBLIC "-//W3C//DTD SVG 20010904//EN"
 "http://www.w3.org/TR/2001/REC-SVG-20010904/DTD/svg10.dtd">
<svg version="1.0" xmlns="http://www.w3.org/2000/svg"
 width="2048.000000pt" height="2048.000000pt" viewBox="0 0 2048.000000 2048.000000"
 preserveAspectRatio="xMidYMid meet">
<metadata>
Created by potrace 1.11, written by Peter Selinger 2001-2013
</metadata>
<g transform="translate(0.000000,2048.000000) scale(0.100000,-0.100000)"
fill="#000000" stroke="none">
<path d="M10075 20098 c-16 -35 -58 -126 -95 -203 -37 -77 -84 -176 -105 -220
-21 -44 -58 -123 -82 -175 -25 -52 -60 -126 -78 -165 -18 -38 -51 -108 -73
-155 -22 -47 -72 -152 -111 -234 -39 -82 -71 -150 -71 -152 0 -1 -38 -82 -85
-179 -47 -97 -85 -178 -85 -180 0 -1 -34 -74 -76 -161 -42 -88 -89 -186 -104
-219 -15 -33 -55 -117 -88 -187 -34 -70 -71 -149 -83 -175 -12 -26 -48 -104
-81 -173 -33 -69 -71 -150 -85 -180 -14 -30 -59 -124 -99 -209 -41 -84 -74
-155 -74 -156 0 -2 -32 -70 -71 -152 -39 -81 -86 -179 -104 -218 -30 -64 -63
-135 -172 -365 -23 -47 -57 -119 -76 -160 -37 -80 -181 -385 -267 -565 -29
-60 -88 -186 -132 -280 -44 -93 -101 -213 -125 -265 -25 -52 -58 -122 -73
-155 -25 -54 -70 -148 -178 -375 -20 -41 -36 -77 -37 -80 0 -3 -25 -54 -54
-115 -29 -60 -66 -137 -81 -170 -15 -33 -62 -131 -104 -219 -42 -87 -76 -160
-76 -161 0 -1 -32 -69 -71 -151 -39 -82 -85 -178 -101 -214 -17 -36 -57 -121
-90 -190 -33 -69 -72 -150 -85 -180 -25 -53 -59 -126 -165 -350 -70 -147 -119
-251 -166 -350 -21 -47 -60 -128 -85 -180 -47 -99 -106 -225 -175 -370 -22
-47 -61 -130 -87 -185 -26 -55 -83 -176 -127 -270 -91 -192 -142 -301 -218
-460 -111 -235 -139 -293 -175 -370 -20 -44 -59 -125 -85 -180 -26 -55 -61
-129 -78 -165 -32 -70 -98 -209 -182 -385 -29 -60 -65 -137 -80 -170 -15 -33
-54 -114 -85 -180 -32 -66 -72 -151 -90 -190 -43 -92 -101 -215 -165 -350 -29
-60 -87 -184 -130 -275 -43 -91 -100 -212 -128 -270 -27 -58 -66 -139 -85
-180 -33 -71 -55 -118 -172 -365 -26 -55 -64 -136 -85 -180 -21 -44 -60 -127
-87 -185 -28 -58 -67 -141 -88 -185 -37 -78 -77 -164 -168 -355 -25 -52 -61
-129 -80 -170 -46 -99 -132 -280 -219 -463 -39 -81 -68 -150 -65 -153 3 -4
310 -7 682 -7 371 0 675 -2 675 -4 0 -2 -4 -11 -10 -21 -5 -9 -33 -66 -61
-127 -28 -60 -74 -157 -101 -215 -28 -58 -65 -136 -83 -175 -18 -38 -56 -119
-85 -180 -29 -60 -67 -141 -85 -180 -18 -38 -54 -115 -81 -170 -26 -55 -48
-102 -49 -105 -1 -3 -19 -43 -42 -90 -36 -75 -113 -239 -238 -505 -21 -44 -71
-149 -111 -234 -41 -84 -74 -155 -74 -156 0 -2 -38 -81 -83 -176 -46 -96 -92
-192 -102 -214 -10 -22 -49 -105 -87 -184 -37 -79 -68 -147 -68 -152 0 -5 283
-9 665 -9 366 0 665 -3 665 -6 0 -3 -19 -44 -41 -92 -77 -161 -209 -440 -259
-547 -48 -102 -106 -225 -186 -394 -35 -73 -64 -135 -64 -136 0 -2 -41 -87
-90 -189 -50 -103 -90 -188 -90 -190 0 -2 -29 -64 -64 -137 -35 -74 -97 -206
-139 -294 -41 -88 -103 -218 -137 -290 -34 -71 -73 -155 -87 -185 -14 -30 -59
-124 -99 -209 -41 -84 -74 -157 -74 -162 0 -5 338 -9 788 -9 l787 0 14 33 c8
17 50 105 93 195 43 90 78 164 78 166 0 2 35 77 79 167 43 90 93 196 111 234
18 39 66 139 107 223 40 85 73 155 73 156 0 2 33 73 74 157 40 85 85 179 98
209 23 50 72 151 193 405 23 50 56 119 73 155 17 36 58 124 92 195 34 72 79
166 100 210 21 44 56 118 77 165 22 47 59 125 83 174 23 50 68 144 100 210 32
67 74 155 93 196 19 41 58 125 87 185 29 61 69 146 90 190 20 44 60 127 88
185 56 118 128 270 177 375 40 86 155 329 194 409 l28 59 3042 -1 c1673 0
3044 -2 3046 -4 4 -4 159 -324 205 -423 15 -33 60 -127 100 -210 40 -82 89
-186 110 -230 21 -44 72 -152 115 -240 42 -88 92 -191 110 -230 18 -38 74
-155 124 -259 50 -103 91 -190 91 -191 0 -2 40 -86 89 -187 48 -100 106 -221
129 -268 22 -47 68 -143 102 -215 34 -71 84 -175 110 -230 26 -55 75 -156 108
-225 33 -69 84 -177 114 -240 73 -153 143 -299 213 -445 32 -66 85 -176 117
-245 33 -69 82 -170 108 -225 26 -55 72 -152 102 -215 31 -63 83 -172 117
-242 l60 -128 765 0 765 0 -31 67 c-17 38 -48 106 -70 153 -22 47 -56 119 -75
160 -19 41 -50 108 -69 148 -87 185 -107 227 -174 372 -70 151 -91 195 -172
370 -22 47 -53 112 -68 145 -15 33 -47 101 -70 150 -23 50 -55 117 -70 150
-15 33 -45 98 -67 145 -22 47 -53 112 -68 145 -15 33 -54 116 -86 184 -33 68
-59 125 -59 126 0 2 -24 54 -54 117 -91 193 -186 398 -186 403 0 3 297 6 659
7 l659 3 -33 70 c-67 145 -99 212 -130 280 -32 68 -349 748 -425 910 -63 134
-226 486 -258 555 -16 36 -48 103 -70 150 -128 273 -268 573 -292 625 -15 33
-49 105 -75 160 -26 55 -51 110 -55 121 l-8 21 669 0 c368 0 671 2 673 4 2 2
-11 33 -28 69 -17 36 -47 99 -65 140 -19 41 -58 125 -86 185 -53 111 -71 152
-143 305 -141 305 -453 974 -498 1069 -30 62 -54 114 -54 116 0 2 -31 69 -70
150 -38 81 -70 148 -70 150 0 2 -31 69 -70 150 -38 81 -70 148 -70 150 0 2
-34 74 -75 160 -41 87 -75 158 -75 160 0 2 -22 49 -49 106 -26 57 -63 136 -81
174 -18 39 -66 141 -106 228 -41 86 -85 181 -98 210 -23 51 -50 110 -143 307
-25 52 -69 147 -99 211 -29 64 -80 174 -114 244 -33 70 -60 129 -60 131 0 2
-26 58 -59 126 -32 68 -68 143 -79 168 -11 25 -41 90 -67 145 -26 55 -89 190
-140 300 -51 110 -114 245 -140 300 -26 55 -60 127 -75 160 -15 33 -63 134
-105 225 -42 91 -89 190 -102 220 -14 30 -43 93 -65 140 -79 169 -97 206 -138
295 -23 50 -53 113 -65 140 -13 28 -48 103 -79 169 -31 65 -56 119 -56 121 0
1 -29 63 -64 136 -35 74 -74 157 -86 184 -12 28 -38 84 -58 125 -19 41 -49
107 -67 145 -18 39 -52 111 -75 160 -99 211 -124 263 -151 323 -27 57 -209
449 -264 567 -13 28 -51 108 -84 178 -34 71 -61 130 -61 132 0 1 -31 69 -70
149 -38 81 -70 149 -70 151 0 2 -31 69 -70 150 -38 81 -70 148 -70 150 0 2
-24 54 -54 116 -29 63 -66 141 -81 174 -75 163 -123 265 -221 473 -30 63 -54
115 -54 116 0 2 -26 59 -59 127 -32 68 -70 149 -84 179 -14 30 -44 96 -67 145
-23 50 -55 117 -70 150 -15 33 -76 164 -135 290 -159 341 -179 384 -213 455
-16 36 -43 94 -60 130 -16 36 -50 108 -75 160 -24 52 -87 187 -140 300 -52
113 -120 258 -151 324 -31 65 -56 119 -56 121 0 2 -26 59 -59 127 -32 68 -70
148 -84 178 -41 90 -137 297 -207 445 -23 50 -55 119 -72 154 -16 35 -44 96
-63 135 -61 129 -131 280 -150 324 l-19 42 -177 0 -176 0 -28 -62z m328 -8958
c30 -63 74 -155 97 -205 89 -189 133 -282 160 -340 15 -33 51 -109 80 -170 28
-60 83 -175 120 -255 37 -80 100 -212 139 -294 39 -82 71 -150 71 -151 0 -2
31 -67 69 -146 37 -79 78 -165 90 -191 11 -26 50 -108 86 -183 36 -75 65 -138
65 -140 0 -1 38 -82 85 -179 47 -97 85 -178 85 -180 0 -2 33 -73 74 -157 40
-85 85 -179 99 -209 14 -30 46 -100 72 -155 26 -55 62 -131 80 -170 18 -38 54
-115 80 -170 50 -106 109 -231 168 -355 19 -41 54 -115 77 -165 23 -49 60
-128 82 -175 22 -47 60 -128 85 -180 25 -52 59 -124 76 -160 17 -36 77 -164
134 -284 56 -120 103 -220 103 -222 0 -2 -1087 -4 -2415 -4 l-2414 0 15 28
c18 33 194 403 194 408 0 1 33 72 74 156 41 85 83 174 94 199 11 24 57 120
101 213 45 93 81 170 81 171 0 2 33 72 74 156 40 85 85 179 99 209 14 30 53
114 87 185 34 72 75 157 90 190 15 33 56 119 90 190 34 72 75 157 90 190 15
33 52 112 83 175 30 63 74 156 97 205 23 50 67 142 97 205 30 63 68 142 83
175 15 33 51 110 80 170 29 61 69 146 90 190 21 44 59 125 86 180 26 55 48
102 49 105 1 3 25 55 54 115 30 61 68 142 86 180 18 39 56 120 85 180 29 61
72 151 95 200 41 88 75 159 177 375 28 58 68 143 90 190 22 47 49 104 61 128
l21 44 38 -79 c20 -43 61 -130 91 -193z"/>
</g>
</svg>
